<?xml version="1.0" standalone="no"?>
<!DOCTYPE svg PUBLIC "-//W3C//DTD SVG 20010904//EN"
 "http://www.w3.org/TR/2001/REC-SVG-20010904/DTD/svg10.dtd">
<svg version="1.0" xmlns="http://www.w3.org/2000/svg"
 width="500.000000pt" height="500.000000pt" viewBox="0 0 500.000000 500.000000"
 preserveAspectRatio="xMidYMid meet">

<g transform="translate(0.000000,354.000000) scale(0.100000,-0.100000)"
fill="#FFFFFF" stroke="none">
<path d="M1730 3164 c-219 -40 -346 -80 -498 -159 -142 -74 -249 -153 -367
-270 -209 -210 -341 -451 -407 -746 -20 -90 -23 -131 -23 -309 0 -178 3 -219
23 -309 46 -205 132 -399 249 -564 74 -104 236 -266 340 -340 147 -105 380
-211 538 -245 193 -43 485 -42 665 1 270 65 493 183 692 367 89 83 206 224
239 288 8 15 17 29 20 32 15 12 99 192 127 271 62 176 77 272 77 499 0 178 -3
219 -23 309 -32 141 -74 256 -137 379 -74 142 -153 249 -270 367 -206 205
-436 333 -725 402 -90 22 -133 26 -300 28 -107 2 -206 1 -220 -1z m430 -40
c535 -88 978 -467 1149 -981 145 -435 78 -910 -182 -1293 -17 -25 -33 -47 -37
-50 -3 -3 -21 -25 -40 -49 l-34 -44 -13 49 c-13 49 -41 226 -50 319 -5 54 -7
61 -47 147 -15 32 -26 75 -26 98 0 61 -19 126 -43 148 -49 46 -308 175 -434
216 -107 36 -192 102 -193 150 0 32 23 88 56 138 20 29 35 67 39 97 8 57 44
118 113 189 60 61 82 102 92 174 7 50 5 70 -17 136 -33 103 -46 128 -91 187
-42 55 -145 124 -190 127 -17 1 -46 19 -78 49 -44 41 -59 48 -106 54 -76 10
-109 1 -207 -53 -94 -52 -181 -126 -207 -175 -37 -72 -65 -266 -68 -477 -1
-100 13 -138 61 -160 l33 -15 0 -112 c0 -113 -9 -159 -35 -179 -8 -6 -29 -39
-47 -75 -32 -63 -35 -65 -127 -111 -52 -27 -129 -60 -170 -74 -109 -37 -236
-101 -269 -135 -25 -26 -34 -52 -61 -177 -18 -81 -35 -154 -39 -162 -3 -8 -6
-24 -7 -35 -1 -11 -11 -63 -23 -115 -11 -52 -24 -125 -28 -162 l-7 -67 -42 53
c-550 675 -392 1679 340 2156 304 197 673 274 1035 214z"/>
</g>
</svg>
